<?xml version="1.0" encoding="UTF-8"?>
<svg version="1.1" xmlns="http://www.w3.org/2000/svg" width="128" height="128">
<path d="M0 0 C3.06290797 0.30858158 6.12523952 0.62256293 9.1875 0.9375 C10.05181641 1.02451172 10.91613281 1.11152344 11.80664062 1.20117188 C18.7317925 1.9175669 23.98926274 2.71310885 30.125 6.25 C31.67574219 7.12398438 31.67574219 7.12398438 33.2578125 8.015625 C36.18824168 10.13622048 37.28085602 11.87204461 39 15 C40.19351172 16.18292625 41.42492564 17.3285858 42.6875 18.4375 C50.50885705 26.07125993 55.63727523 36.39438579 58 47 C58.20238281 47.86238281 58.40476562 48.72476563 58.61328125 49.61328125 C59.09879706 51.73700008 59.55293734 53.86785502 60 56 C61.294174 53.43873936 62.58540784 50.87606642 63.875 48.3125 C64.23980469 47.59126953 64.60460937 46.87003906 64.98046875 46.12695312 C66.48926618 43.12307461 67.92942609 40.18358918 69.13671875 37.04296875 C70.25902839 34.38700521 71.46597469 34.22861833 74 33 C75.01187895 31.34051852 76.0126546 29.67419438 77 28 C77.99 27.67 78.98 27.34 80 27 C80.86625 26.1028125 80.86625 26.1028125 81.75 25.1875 C86.32762775 20.73702858 90.49322137 18.7181985 96.828125 18.21484375 C99.29538317 17.97078044 101.64153034 17.4693797 104.0625 16.9375 C108.15321097 16.08395134 111.83141742 15.81875728 116 16 C116.98376147 29.63602703 112.6261585 42.95218437 103.90625 53.54296875 C102.5400635 55.06012875 101.15169328 56.5578374 99.734375 58.02734375 C97.92144097 59.90896688 97.92144097 59.90896688 96.953125 62.19140625 C96 64 96 64 93 65 C92.401875 65.61875 91.80375 66.2375 91.1875 66.875 C87.90431956 70.06437529 84.73071515 71.88712727 80.125 72.1875 C79.073125 72.0946875 79.073125 72.0946875 78 72 C78 72.66 78 73.32 78 74 C76.02 74 74.04 74 72 74 C72 74.66 72 75.32 72 76 C70.35 76.33 68.7 76.66 67 77 C66.25492456 83.37305598 65.89650183 89.58311325 66 96 C66.99 95.67 67.98 95.34 69 95 C69.33 94.34 69.66 93.68 70 93 C74.64011982 92.28470003 79.31150732 92.15576388 84 92 C84.76183594 91.96132812 85.52367188 91.92265625 86.30859375 91.8828125 C88.0625 91.9375 88.0625 91.9375 91 93 C92.38943288 95.01404032 93.51763814 97.09559364 94.66796875 99.25390625 C95.32732422 100.11822266 95.32732422 100.11822266 96 101 C99.71256453 101.66923762 99.71256453 101.66923762 103 101 C103 101.66 103 102.32 103 103 C103.9075 102.9175 104.815 102.835 105.75 102.75 C109 103 109 103 111.0625 104.6875 C112.0215625 105.8321875 112.0215625 105.8321875 113 107 C113.886875 107.845625 114.77375 108.69125 115.6875 109.5625 C118 112 118 112 119 115 C119.24878906 115.69996094 119.49757813 116.39992188 119.75390625 117.12109375 C120.02074219 117.88550781 120.28757812 118.64992188 120.5625 119.4375 C120.83191406 120.19933594 121.10132812 120.96117188 121.37890625 121.74609375 C122 124 122 124 122 128 C79.76 128 37.52 128 -6 128 C-4.8751337 119.00106959 -2.97246449 113.74310507 3 107 C3.45133301 106.47349854 3.90266602 105.94699707 4.36767578 105.40454102 C6.35444723 103.69501422 7.46605792 103.54262465 10.0546875 103.33984375 C10.83457031 103.26830078 11.61445313 103.19675781 12.41796875 103.12304688 C13.63419922 103.03120117 13.63419922 103.03120117 14.875 102.9375 C20.01875423 102.52055042 24.20254432 101.98599954 29 100 C31.89453125 99.8046875 31.89453125 99.8046875 34.8125 99.875 C35.78832031 99.89304687 36.76414063 99.91109375 37.76953125 99.9296875 C38.50558594 99.95289062 39.24164063 99.97609375 40 100 C40.495 98.515 40.495 98.515 41 97 C43.97 96.505 43.97 96.505 47 96 C47 95.34 47 94.68 47 94 C47.99 94 48.98 94 50 94 C49.99476318 93.3387915 49.98952637 92.67758301 49.98413086 91.99633789 C49.96342344 89.01840149 49.95035988 86.04048018 49.9375 83.0625 C49.92912109 82.02158203 49.92074219 80.98066406 49.91210938 79.90820312 C49.90888672 78.91884766 49.90566406 77.92949219 49.90234375 76.91015625 C49.89710693 75.99371338 49.89187012 75.07727051 49.88647461 74.13305664 C50 72 50 72 51 71 C50.74754803 69.30247813 50.42354225 67.61528455 50.0625 65.9375 C49.77052734 64.55884766 49.77052734 64.55884766 49.47265625 63.15234375 C49.31667969 62.44207031 49.16070312 61.73179688 49 61 C46.03 60.505 46.03 60.505 43 60 C43 59.34 43 58.68 43 58 C42.02160156 57.70996094 42.02160156 57.70996094 41.0234375 57.4140625 C39.21179701 56.8743112 37.40197028 56.32844459 35.59375 55.77734375 C33.69849211 55.20933724 31.7898788 54.68536849 29.875 54.1875 C24.17011185 51.83113316 19.65988645 48.60154053 17 43 C14.74509758 41.02696038 12.68122794 39.34061397 10 38 C9.65424251 36.3358664 9.32259804 34.66877781 9 33 C7.96681644 30.9695651 7.96681644 30.9695651 6.6875 29 C1.44934262 19.83322459 -0.75820848 10.50961194 0 0 Z M64 87 C64 90.3 64 93.6 64 97 C64.33 97 64.66 97 65 97 C65 93.7 65 90.4 65 87 C64.67 87 64.34 87 64 87 Z " fill="#9ED266" transform="translate(6,0)"/>
<path d="M0 0 C0.33 0 0.66 0 1 0 C1 7.59 1 15.18 1 23 C1.66 23 2.32 23 3 23 C3 26.63 3 30.26 3 34 C4.093125 33.979375 5.18625 33.95875 6.3125 33.9375 C10 34 10 34 13 35 C13 31.7 13 28.4 13 25 C13.66 25 14.32 25 15 25 C15 21.7 15 18.4 15 15 C15.33 15 15.66 15 16 15 C16 17.97 16 20.94 16 24 C16.99 23.67 17.98 23.34 19 23 C19.33 22.34 19.66 21.68 20 21 C24.64011982 20.28470003 29.31150732 20.15576388 34 20 C34.76183594 19.96132812 35.52367188 19.92265625 36.30859375 19.8828125 C38.0625 19.9375 38.0625 19.9375 41 21 C42.38943288 23.01404032 43.51763814 25.09559364 44.66796875 27.25390625 C45.10753906 27.83011719 45.54710938 28.40632813 46 29 C49.71256453 29.66923762 49.71256453 29.66923762 53 29 C53 29.66 53 30.32 53 31 C53.9075 30.9175 54.815 30.835 55.75 30.75 C59 31 59 31 61.0625 32.6875 C61.701875 33.450625 62.34125 34.21375 63 35 C63.886875 35.845625 64.77375 36.69125 65.6875 37.5625 C68 40 68 40 69 43 C69.24878906 43.69996094 69.49757813 44.39992187 69.75390625 45.12109375 C70.02074219 45.88550781 70.28757812 46.64992187 70.5625 47.4375 C70.83191406 48.19933594 71.10132812 48.96117187 71.37890625 49.74609375 C72 52 72 52 72 56 C29.76 56 -12.48 56 -56 56 C-54.8751337 47.00106959 -52.97246449 41.74310507 -47 35 C-46.54866699 34.47349854 -46.09733398 33.94699707 -45.63232422 33.40454102 C-43.64555277 31.69501422 -42.53394208 31.54262465 -39.9453125 31.33984375 C-39.16542969 31.26830078 -38.38554688 31.19675781 -37.58203125 31.12304688 C-36.77121094 31.06181641 -35.96039063 31.00058594 -35.125 30.9375 C-29.98124577 30.52055042 -25.79745568 29.98599954 -21 28 C-18.10546875 27.8046875 -18.10546875 27.8046875 -15.1875 27.875 C-13.72376953 27.90207031 -13.72376953 27.90207031 -12.23046875 27.9296875 C-11.49441406 27.95289062 -10.75835937 27.97609375 -10 28 C-9.505 26.515 -9.505 26.515 -9 25 C-7.02 24.67 -5.04 24.34 -3 24 C-3 23.34 -3 22.68 -3 22 C-2.01 22 -1.02 22 0 22 C0 14.74 0 7.48 0 0 Z " fill="#D37B54" transform="translate(56,72)"/>
<path d="M0 0 C0.98376147 13.63602703 -3.3738415 26.95218437 -12.09375 37.54296875 C-13.4599365 39.06012875 -14.84830672 40.5578374 -16.265625 42.02734375 C-18.07855903 43.90896688 -18.07855903 43.90896688 -19.046875 46.19140625 C-20 48 -20 48 -23 49 C-23.598125 49.61875 -24.19625 50.2375 -24.8125 50.875 C-28.09568044 54.06437529 -31.26928485 55.88712727 -35.875 56.1875 C-36.926875 56.0946875 -36.926875 56.0946875 -38 56 C-38 56.66 -38 57.32 -38 58 C-39.98 58 -41.96 58 -44 58 C-44 58.66 -44 59.32 -44 60 C-45.98 60.495 -45.98 60.495 -48 61 C-49.09660712 57.66004802 -49.05748962 56.15960679 -47.84765625 52.80078125 C-40.36829291 38.18574523 -31.01174977 26.38166419 -16 19 C-28.23691475 20.83324566 -41.35367311 29.58842286 -48.609375 39.39453125 C-50.20840683 41.65663699 -51.7169348 43.94932957 -53.22265625 46.27734375 C-55 49 -55 49 -57 51 C-57.33249707 41.19133656 -53.44139486 34.08353896 -48.89135742 25.73144531 C-47.87909259 23.83921942 -47.87909259 23.83921942 -46.8671875 21.0859375 C-45.74465937 18.38580227 -44.56701755 18.24461457 -42 17 C-40.98812105 15.34051852 -39.9873454 13.67419438 -39 12 C-38.01 11.67 -37.02 11.34 -36 11 C-35.13375 10.1028125 -35.13375 10.1028125 -34.25 9.1875 C-29.67237225 4.73702858 -25.50677863 2.7181985 -19.171875 2.21484375 C-16.70461683 1.97078044 -14.35846966 1.4693797 -11.9375 0.9375 C-7.84678903 0.08395134 -4.16858258 -0.18124272 0 0 Z " fill="#9ED266" transform="translate(122,16)"/>
<path d="M0 0 C15.30586948 2.62067711 29.05252736 12.30051878 38.01171875 24.80859375 C39.75376942 27.50018986 41.3987869 30.22282822 43 33 C43.639375 34.051875 44.27875 35.10375 44.9375 36.1875 C46.36934841 39.97768697 46.20870019 42.96512967 46 47 C46.45890625 46.33613281 46.9178125 45.67226563 47.390625 44.98828125 C48.00421875 44.10527344 48.6178125 43.22226562 49.25 42.3125 C49.85328125 41.44238281 50.4565625 40.57226562 51.078125 39.67578125 C59.60637823 27.80209535 71.92343272 18.81694743 86.375 15.5625 C87.57125 15.376875 88.7675 15.19125 90 15 C87.41005628 17.03371419 84.88702426 18.61254695 81.9375 20.0625 C68.51932629 27.50969658 59.4582876 39.85591561 54 54 C50.91924356 65.43302945 50.01443521 77.24448605 49 89 C45.7 88.67 42.4 88.34 39 88 C38.341752 81.45498126 37.90455234 74.98750006 37.76098633 68.4128418 C37.22542917 46.72900448 33.59199794 29.0903723 18 13 C12.37246353 8.2053679 6.68776108 4.17049414 0 1 C0 0.67 0 0.34 0 0 Z " fill="#84B749" transform="translate(20,18)"/>
<path d="M0 0 C0.33 0 0.66 0 1 0 C1 2.97 1 5.94 1 9 C1.99 8.67 2.98 8.34 4 8 C4.33 7.34 4.66 6.68 5 6 C9.64011982 5.28470003 14.31150732 5.15576388 19 5 C19.76183594 4.96132812 20.52367188 4.92265625 21.30859375 4.8828125 C23.0625 4.9375 23.0625 4.9375 26 6 C27.38943288 8.01404032 28.51763814 10.09559364 29.66796875 12.25390625 C30.10753906 12.83011719 30.54710937 13.40632813 31 14 C34.71256453 14.66923762 34.71256453 14.66923762 38 14 C38 14.66 38 15.32 38 16 C38.9075 15.9175 39.815 15.835 40.75 15.75 C44 16 44 16 46.0625 17.6875 C46.701875 18.450625 47.34125 19.21375 48 20 C48.886875 20.845625 49.77375 21.69125 50.6875 22.5625 C53 25 53 25 54 28 C54.39058594 29.06734375 54.39058594 29.06734375 54.7890625 30.15625 C55.06492188 30.9296875 55.34078125 31.703125 55.625 32.5 C55.90601563 33.2734375 56.18703125 34.046875 56.4765625 34.84375 C57 37 57 37 56 40 C55.6596875 39.46890625 55.319375 38.9378125 54.96875 38.390625 C51.41175808 33.20649848 48.15151021 29.75607215 42 28 C40.08655229 27.83280554 38.16888678 27.70931859 36.25 27.625 C33.41796875 27.46875 33.41796875 27.46875 31 27 C28.5625 24.125 28.5625 24.125 27 21 C23.12100634 17.31926601 19.74213031 17.51342223 14.61328125 17.62890625 C11.16785142 18.11816759 9.56052005 19.72398217 7 22 C2.57331583 22.45793285 0.7373856 22.4915904 -3 20 C-2.67 16.7 -2.34 13.4 -2 10 C-1.34 10 -0.68 10 0 10 C0 6.7 0 3.4 0 0 Z " fill="#E59164" transform="translate(71,87)"/>
<path d="M0 0 C0.33 0 0.66 0 1 0 C1 7.59 1 15.18 1 23 C1.66 23 2.32 23 3 23 C3 26.63 3 30.26 3 34 C0.4609375 34.9765625 -2.078125 35.953125 -4.6171875 36.9296875 C-7.12217007 37.88530895 -7.12217007 37.88530895 -9 40 C-11.71309537 40.10196273 -14.36833509 39.9307987 -17.078125 39.77734375 C-20.11278242 39.81866642 -20.11278242 39.81866642 -22.9296875 41.50390625 C-26.5731954 43.27930514 -28.85756257 43.21474053 -32.875 43 C-38.84132031 42.88683481 -42.74608716 43.13422936 -48 46 C-49.95555185 47.8835052 -51.38431342 49.78420126 -53 52 C-53.98460898 53.0151577 -54.98120535 54.01915472 -56 55 C-55.21390918 48.3859945 -53.78322689 43.8952916 -49.4375 38.7890625 C-47.90804116 37.04523116 -47.90804116 37.04523116 -47.05859375 34.84765625 C-46 33 -46 33 -44.22265625 32.20703125 C-43.50980469 32.07683594 -42.79695313 31.94664063 -42.0625 31.8125 C-40.86560547 31.59013672 -40.86560547 31.59013672 -39.64453125 31.36328125 C-35.96539155 30.85787506 -32.28486601 30.56051848 -28.578125 30.34375 C-25.9594408 30.10744326 -25.9594408 30.10744326 -23.53515625 28.9765625 C-20.58528595 27.84024882 -18.33535499 27.79914807 -15.1875 27.875 C-13.72376953 27.90207031 -13.72376953 27.90207031 -12.23046875 27.9296875 C-11.49441406 27.95289062 -10.75835937 27.97609375 -10 28 C-9.505 26.515 -9.505 26.515 -9 25 C-7.02 24.67 -5.04 24.34 -3 24 C-3 23.34 -3 22.68 -3 22 C-2.01 22 -1.02 22 0 22 C0 14.74 0 7.48 0 0 Z " fill="#E39263" transform="translate(56,72)"/>
<path d="M0 0 C-5.445 2.475 -5.445 2.475 -11 5 C-11.33 4.01 -11.66 3.02 -12 2 C-10.56656 1.46809459 -9.12804633 0.94984742 -7.6875 0.4375 C-6.48673828 0.00244141 -6.48673828 0.00244141 -5.26171875 -0.44140625 C-3 -1 -3 -1 0 0 Z " fill="#8BBE50" transform="translate(110,34)"/>
<path d="M0 0 C3.63 0 7.26 0 11 0 C11 0.33 11 0.66 11 1 C7.37 1 3.74 1 0 1 C0 0.67 0 0.34 0 0 Z " fill="#E79165" transform="translate(19,101)"/>
<path d="M0 0 C2.62187494 1.04874998 3.79371361 1.64931313 5.25 4.125 C5.4975 4.74375 5.745 5.3625 6 6 C3.97945196 4.35830472 1.97956942 2.69088222 0 1 C0 0.67 0 0.34 0 0 Z " fill="#9FD367" transform="translate(45,14)"/>
<path d="M0 0 C0.33 0 0.66 0 1 0 C1 3.3 1 6.6 1 10 C0.67 10 0.34 10 0 10 C0 6.7 0 3.4 0 0 Z " fill="#9FD366" transform="translate(123,17)"/>
<path d="M0 0 C0.33 0 0.66 0 1 0 C1 3.3 1 6.6 1 10 C0.67 10 0.34 10 0 10 C0 6.7 0 3.4 0 0 Z " fill="#9FD367" transform="translate(4,1)"/>
<path d="M0 0 C1.0625 1.8125 1.0625 1.8125 2 4 C1.67 4.99 1.34 5.98 1 7 C0.67 7 0.34 7 0 7 C0 4.69 0 2.38 0 0 Z " fill="#9ACD61" transform="translate(65,47)"/>
<path d="M0 0 C2.31 0 4.62 0 7 0 C7 0.33 7 0.66 7 1 C4.69 1 2.38 1 0 1 C0 0.67 0 0.34 0 0 Z " fill="#E69165" transform="translate(38,98)"/>
<path d="M0 0 C2.31 0 4.62 0 7 0 C7 0.33 7 0.66 7 1 C4.69 1 2.38 1 0 1 C0 0.67 0 0.34 0 0 Z " fill="#E79165" transform="translate(83,90)"/>
<path d="M0 0 C2.31 0 4.62 0 7 0 C7 0.33 7 0.66 7 1 C4.69 1 2.38 1 0 1 C0 0.67 0 0.34 0 0 Z " fill="#9FD367" transform="translate(115,14)"/>
<path d="M0 0 C0.33 0 0.66 0 1 0 C1 1.98 1 3.96 1 6 C0.67 6 0.34 6 0 6 C0 4.02 0 2.04 0 0 Z " fill="#83B749" transform="translate(72,81)"/>
<path d="M0 0 C1.98 0 3.96 0 6 0 C6 0.33 6 0.66 6 1 C4.02 1 2.04 1 0 1 C0 0.67 0 0.34 0 0 Z " fill="#9FD267" transform="translate(109,15)"/>
<path d="M0 0 C0.33 0 0.66 0 1 0 C1 1.65 1 3.3 1 5 C0.67 5 0.34 5 0 5 C0 3.35 0 1.7 0 0 Z " fill="#84B749" transform="translate(55,66)"/>
<path d="M0 0 C0.33 0 0.66 0 1 0 C1 1.65 1 3.3 1 5 C0.67 5 0.34 5 0 5 C0 3.35 0 1.7 0 0 Z " fill="#9FD367" transform="translate(122,27)"/>
<path d="M0 0 C0.33 0 0.66 0 1 0 C1 1.65 1 3.3 1 5 C0.67 5 0.34 5 0 5 C0 3.35 0 1.7 0 0 Z " fill="#9ED367" transform="translate(5,11)"/>
<path d="M0 0 C1 4 1 4 1 4 Z " fill="#84B749" transform="translate(73,77)"/>
<path d="M0 0 C1 4 1 4 1 4 Z " fill="#84B749" transform="translate(54,61)"/>
<path d="M0 0 C0 3 0 3 0 3 Z " fill="#9FD367" transform="translate(110,53)"/>
<path d="M0 0 C1 4 1 4 1 4 Z " fill="#9FD367" transform="translate(64,43)"/>
<path d="M0 0 C4 1 4 1 4 1 Z " fill="#9FD367" transform="translate(105,16)"/>
<path d="M0 0 C4 1 4 1 4 1 Z " fill="#9FD367" transform="translate(18,0)"/>
<path d="" fill="#E79065" transform="translate(0,0)"/>
<path d="" fill="#E69164" transform="translate(0,0)"/>
<path d="M0 0 C3 1 3 1 3 1 Z " fill="#E79065" transform="translate(109,102)"/>
<path d="M0 0 C3 1 3 1 3 1 Z " fill="#E79065" transform="translate(16,102)"/>
<path d="M0 0 C3 1 3 1 3 1 Z " fill="#E79164" transform="translate(35,99)"/>
<path d="M0 0 C3 1 3 1 3 1 Z " fill="#E79165" transform="translate(90,91)"/>
<path d="M0 0 C3 1 3 1 3 1 Z " fill="#E79165" transform="translate(80,91)"/>
<path d="M0 0 C3 1 3 1 3 1 Z " fill="#9FD367" transform="translate(78,74)"/>
<path d="M0 0 C3 1 3 1 3 1 Z " fill="#9FD367" transform="translate(84,72)"/>
<path d="M0 0 C3 1 3 1 3 1 Z " fill="#9FD367" transform="translate(46,58)"/>
<path d="M0 0 C3 1 3 1 3 1 Z " fill="#9FD367" transform="translate(43,57)"/>
<path d="" fill="#9FD367" transform="translate(0,0)"/>
<path d="" fill="#9FD367" transform="translate(0,0)"/>
<path d="" fill="#9FD367" transform="translate(0,0)"/>
<path d="" fill="#9FD367" transform="translate(0,0)"/>
<path d="" fill="#9FD266" transform="translate(0,0)"/>
<path d="" fill="#9FD367" transform="translate(0,0)"/>
<path d="M0 0 C3 1 3 1 3 1 Z " fill="#9FD367" transform="translate(102,17)"/>
<path d="" fill="#9FD367" transform="translate(0,0)"/>
<path d="M0 0 C3 1 3 1 3 1 Z " fill="#9FD367" transform="translate(22,1)"/>
<path d="" fill="#E79165" transform="translate(0,0)"/>
<path d="" fill="#E79165" transform="translate(0,0)"/>
<path d="" fill="#E79265" transform="translate(0,0)"/>
<path d="M0 0 C2 1 2 1 2 1 Z " fill="#E79165" transform="translate(14,103)"/>
<path d="" fill="#E79165" transform="translate(0,0)"/>
<path d="M0 0 C2 1 2 1 2 1 Z " fill="#E79165" transform="translate(51,95)"/>
<path d="M0 0 C2 1 2 1 2 1 Z " fill="#E79165" transform="translate(78,92)"/>
<path d="M0 0 C2 1 2 1 2 1 Z " fill="#9FD367" transform="translate(41,56)"/>
<path d="M0 0 C2 1 2 1 2 1 Z " fill="#9FD367" transform="translate(39,55)"/>
<path d="" fill="#9FD367" transform="translate(0,0)"/>
<path d="" fill="#9FD467" transform="translate(0,0)"/>
<path d="" fill="#9FD367" transform="translate(0,0)"/>
<path d="" fill="#9ED367" transform="translate(0,0)"/>
<path d="" fill="#9FD367" transform="translate(0,0)"/>
<path d="" fill="#9FD367" transform="translate(0,0)"/>
<path d="" fill="#9ED367" transform="translate(0,0)"/>
<path d="" fill="#9FD367" transform="translate(0,0)"/>
<path d="" fill="#9FD367" transform="translate(0,0)"/>
<path d="" fill="#9FD367" transform="translate(0,0)"/>
<path d="" fill="#9FD367" transform="translate(0,0)"/>
<path d="" fill="#9FD367" transform="translate(0,0)"/>
<path d="" fill="#9FD366" transform="translate(0,0)"/>
<path d="" fill="#9FD367" transform="translate(0,0)"/>
<path d="" fill="#9FD367" transform="translate(0,0)"/>
<path d="" fill="#9FD367" transform="translate(0,0)"/>
<path d="" fill="#9ED366" transform="translate(0,0)"/>
<path d="" fill="#9ED367" transform="translate(0,0)"/>
<path d="" fill="#9FD367" transform="translate(0,0)"/>
<path d="M0 0 C2 1 2 1 2 1 Z " fill="#9FD367" transform="translate(100,18)"/>
<path d="" fill="#E79165" transform="translate(0,0)"/>
<path d="" fill="#E79165" transform="translate(0,0)"/>
<path d="" fill="#E79165" transform="translate(0,0)"/>
<path d="" fill="#E79165" transform="translate(0,0)"/>
<path d="" fill="#E79165" transform="translate(0,0)"/>
<path d="" fill="#E79165" transform="translate(0,0)"/>
<path d="" fill="#E79165" transform="translate(0,0)"/>
<path d="" fill="#E79165" transform="translate(0,0)"/>
<path d="" fill="#E79165" transform="translate(0,0)"/>
<path d="" fill="#E79165" transform="translate(0,0)"/>
<path d="" fill="#E79165" transform="translate(0,0)"/>
<path d="" fill="#E79165" transform="translate(0,0)"/>
<path d="" fill="#E79165" transform="translate(0,0)"/>
<path d="" fill="#E79165" transform="translate(0,0)"/>
<path d="" fill="#E79165" transform="translate(0,0)"/>
<path d="" fill="#E79165" transform="translate(0,0)"/>
<path d="" fill="#E79165" transform="translate(0,0)"/>
<path d="" fill="#9FD367" transform="translate(0,0)"/>
<path d="" fill="#9FD367" transform="translate(0,0)"/>
<path d="" fill="#9FD367" transform="translate(0,0)"/>
<path d="" fill="#9FD367" transform="translate(0,0)"/>
<path d="" fill="#9FD367" transform="translate(0,0)"/>
<path d="" fill="#9FD367" transform="translate(0,0)"/>
<path d="" fill="#9FD367" transform="translate(0,0)"/>
<path d="" fill="#9FD367" transform="translate(0,0)"/>
<path d="" fill="#9FD367" transform="translate(0,0)"/>
<path d="" fill="#9FD367" transform="translate(0,0)"/>
<path d="" fill="#9FD367" transform="translate(0,0)"/>
<path d="" fill="#9FD367" transform="translate(0,0)"/>
<path d="" fill="#9FD367" transform="translate(0,0)"/>
<path d="" fill="#9FD367" transform="translate(0,0)"/>
<path d="" fill="#9FD367" transform="translate(0,0)"/>
<path d="" fill="#9FD367" transform="translate(0,0)"/>
<path d="" fill="#9FD367" transform="translate(0,0)"/>
<path d="" fill="#9FD367" transform="translate(0,0)"/>
<path d="" fill="#9FD367" transform="translate(0,0)"/>
<path d="" fill="#9FD367" transform="translate(0,0)"/>
<path d="" fill="#9FD367" transform="translate(0,0)"/>
<path d="" fill="#9FD367" transform="translate(0,0)"/>
<path d="" fill="#9FD367" transform="translate(0,0)"/>
<path d="" fill="#9FD367" transform="translate(0,0)"/>
<path d="" fill="#9FD367" transform="translate(0,0)"/>
<path d="" fill="#9FD367" transform="translate(0,0)"/>
<path d="" fill="#9FD367" transform="translate(0,0)"/>
<path d="" fill="#9FD367" transform="translate(0,0)"/>
<path d="" fill="#9FD367" transform="translate(0,0)"/>
<path d="" fill="#9FD367" transform="translate(0,0)"/>
<path d="" fill="#9FD367" transform="translate(0,0)"/>
<path d="" fill="#9FD367" transform="translate(0,0)"/>
<path d="" fill="#9FD367" transform="translate(0,0)"/>
<path d="" fill="#9FD367" transform="translate(0,0)"/>
<path d="" fill="#9FD367" transform="translate(0,0)"/>
<path d="" fill="#9FD367" transform="translate(0,0)"/>
</svg>
